<?xml version="1.0" encoding="UTF-8"?>
<svg id="Layer_1" xmlns="http://www.w3.org/2000/svg" version="1.1" viewBox="0 0 1000 1000">
  <!-- Generator: Adobe Illustrator 30.2.1, SVG Export Plug-In . SVG Version: 2.1.1 Build 1)  -->
  <defs>
    <style>
      .st0 {
        fill: #bef049;
      }

      .st1 {
        fill: #e8fcc2;
        opacity: .5;
      }

      .st2 {
        fill: #d94bdd;
        opacity: .79;
      }

      .st3 {
        fill: #9dfce1;
      }

      .st4 {
        fill: #103249;
      }
    </style>
  </defs>
  <circle class="st4" cx="505.16" cy="518.41" r="387.02"/>
  <path class="st0" d="M646.49,94.57h91.71v643.24h-91.43c-3.44,0-6.23-2.79-6.23-6.23V100.52c0-3.28,2.67-5.95,5.95-5.95Z"/>
  <path class="st3" d="M83.01,897.49L454.92,281.19h127.27c10.04,0,16.23,10.95,11.06,19.55L243.7,882.28c-5.67,9.44-15.87,15.21-26.88,15.21H83.01Z"/>
  <path class="st1" d="M215.98,547.31l-46.97,84.05h366.68c9.94,0,18.85-6.13,22.4-15.42l18.94-49.53c3.52-9.22-3.28-19.1-13.15-19.1H215.98Z"/>
  <path class="st2" d="M204.18,518.41l-46.97,84.05h366.68c9.94,0,18.85-6.13,22.4-15.42l18.94-49.53c3.52-9.22-3.28-19.1-13.15-19.1H204.18Z"/>
</svg>